<svg width="16" height="16" viewBox="0 0 16 16" fill="none"
  xmlns="http://www.w3.org/2000/svg">
  <path d="M11.3334 4.66671H4.66671C4.4899 4.66671 4.32033 4.73695 4.1953 4.86197C4.07028 4.98699 4.00004 5.15656 4.00004 5.33337C4.00004 5.51019 4.07028 5.67975 4.1953 5.80478C4.32033 5.9298 4.4899 6.00004 4.66671 6.00004H11.3334C11.5102 6.00004 11.6798 5.9298 11.8048 5.80478C11.9298 5.67975 12 5.51019 12 5.33337C12 5.15656 11.9298 4.98699 11.8048 4.86197C11.6798 4.73695 11.5102 4.66671 11.3334 4.66671ZM11.3334 7.33337H4.66671C4.4899 7.33337 4.32033 7.40361 4.1953 7.52864C4.07028 7.65366 4.00004 7.82323 4.00004 8.00004C4.00004 8.17685 4.07028 8.34642 4.1953 8.47145C4.32033 8.59647 4.4899 8.66671 4.66671 8.66671H11.3334C11.5102 8.66671 11.6798 8.59647 11.8048 8.47145C11.9298 8.34642 12 8.17685 12 8.00004C12 7.82323 11.9298 7.65366 11.8048 7.52864C11.6798 7.40361 11.5102 7.33337 11.3334 7.33337ZM12.6667 1.33337H3.33337C2.80294 1.33337 2.29423 1.54409 1.91916 1.91916C1.54409 2.29423 1.33337 2.80294 1.33337 3.33337V10C1.33337 10.5305 1.54409 11.0392 1.91916 11.4143C2.29423 11.7893 2.80294 12 3.33337 12H11.06L13.5267 14.4734C13.589 14.5352 13.6629 14.584 13.7441 14.6172C13.8253 14.6504 13.9123 14.6672 14 14.6667C14.0875 14.669 14.1743 14.6507 14.2534 14.6134C14.3751 14.5634 14.4793 14.4784 14.5529 14.3693C14.6264 14.2601 14.6661 14.1317 14.6667 14V3.33337C14.6667 2.80294 14.456 2.29423 14.0809 1.91916C13.7058 1.54409 13.1971 1.33337 12.6667 1.33337ZM13.3334 12.3934L11.8067 10.86C11.7444 10.7983 11.6705 10.7494 11.5893 10.7162C11.5081 10.683 11.4211 10.6662 11.3334 10.6667H3.33337C3.15656 10.6667 2.98699 10.5965 2.86197 10.4714C2.73695 10.3464 2.66671 10.1769 2.66671 10V3.33337C2.66671 3.15656 2.73695 2.98699 2.86197 2.86197C2.98699 2.73695 3.15656 2.66671 3.33337 2.66671H12.6667C12.8435 2.66671 13.0131 2.73695 13.1381 2.86197C13.2631 2.98699 13.3334 3.15656 13.3334 3.33337V12.3934Z" fill="currentColor"/>
</svg>
