<svg width="365" height="119" viewBox="0 0 365 119" fill="none" xmlns="http://www.w3.org/2000/svg">
  <path fill="currentColor" d="M340.2 114.4C338.2 112.2 336.5 109.1 335.1 105.5C332.3 98.3 330.7 88.7 330.7 78C330.7 74.9 330.8 71.9 331.1 69.1L336.2 69.6C336 72.3 335.8 75.1 335.8 78.1C335.8 85.7 336.7 92.7 338.2 98.5C339.7 104.2 341.8 108.7 344 111C345.4 112.6 346.7 113.1 347.7 113.1C348.7 113.1 350 112.6 351.4 111C352.8 109.4 354.3 106.9 355.5 103.8C358 97.4 359.6 88.3 359.6 78.1C359.6 75.2 359.5 72.3 359.2 69.6L364.3 69.1C364.6 72 364.7 75 364.7 78C364.7 86 363.8 93.4 362.1 99.7C360.5 106 358.2 111 355.2 114.4C353.2 116.6 350.6 118.2 347.7 118.2C344.8 118.2 342.2 116.7 340.2 114.4Z"/>
  <path fill="currentColor" d="M297 118.2C290.4 118.2 284.1 115.3 279.3 110.7C274.5 106.1 271.3 99.7 271.3 92.5C271.3 78.3 282.8 66.8 297 66.8C309 66.8 319 75 321.9 86.1L322.7 89.3H276.7C276.5 90.3 276.4 91.4 276.4 92.5C276.4 98.1 278.9 103.2 282.8 107C286.7 110.8 291.9 113.1 296.9 113.1H322.6V118.2H297V118.2ZM278.2 84.2H315.8C312.5 77 305.3 72 297 72C288.6 72 281.4 77 278.2 84.2Z"/>
  <path fill="currentColor" d="M238.8 118.2C224.6 118.2 213.1 106.7 213.1 92.5C213.1 78.3 224.6 66.8 238.8 66.8H258.1V0H263.2V72H238.8C227.4 72 218.3 81.2 218.2 92.6C218.2 104 227.4 113.1 238.8 113.2H263.2V118.3H238.8V118.2Z"/>
  <path fill="currentColor" d="M155 118.2V113.1H179.4C190.8 113.1 199.9 103.9 200 92.5C200 81.1 190.8 72 179.4 71.9H155V0H160.1V66.8H179.4C193.6 66.8 205.1 78.3 205.1 92.5C205.1 106.7 193.6 118.2 179.4 118.2H155Z"/>
  <path fill="currentColor" d="M105.4 92.6C105.4 78.4 116.9 67 131 67C135.7 67 140 68.2 143.8 70.4L146 71.7L143.5 76L141.3 74.8C138.3 73 134.8 72 131 72C119.6 72 110.4 81.2 110.4 92.6C110.4 104 119.6 113.2 131 113.2C134.8 113.2 138.3 112.2 141.3 110.4L143.5 109.1L146 113.4L143.8 114.7C140 116.9 135.6 118.1 131 118.1C116.9 118.2 105.4 106.7 105.4 92.6Z"/>
  <path fill="currentColor" d="M92.4 118.2V66.8H97.4V118.2H92.4Z"/>
  <path fill="currentColor" d="M94.9 48.7C93 48.7 91.5 50.2 91.5 52.1C91.5 54 93 55.5 94.9 55.5C96.8 55.5 98.3 54 98.3 52.1C98.3 50.2 96.8 48.7 94.9 48.7Z"/>
  <path fill="currentColor" d="M59.4 118.2C59.4 118.2 59.4 87 59.4 81.9V81.2V69.4V66.8H64.5V74.7C69 70.6 75.1 68.1 81.7 68.1H84.3V73.2H81.7C74.5 73.2 68.1 76.9 64.5 82.6V118.2H59.4V118.2Z"/>
  <path fill="currentColor" d="M25.7 118.2C19.1 118.2 12.8 115.3 8 110.7C3.2 106.1 0 99.7 0 92.5C0 78.3 11.5 66.8 25.7 66.8C37.7 66.8 47.7 75 50.6 86.1L51.4 89.3H5.4C5.2 90.3 5.1 91.4 5.1 92.5C5.1 98.1 7.6 103.2 11.5 107C15.4 110.8 20.6 113.1 25.6 113.1H51.3V118.2H25.7V118.2ZM6.9 84.2H44.5C41.3 77 34.1 72 25.7 72C17.3 72 10.1 77 6.9 84.2Z"/>
</svg>
