<svg width="371" height="120" viewBox="0 0 371 120" fill="none"
  xmlns="http://www.w3.org/2000/svg">
  <path d="M345.381 116.142C343.35 113.909 341.624 110.761 340.203 107.107C337.36 99.797 335.736 90.0508 335.736 79.1878C335.736 76.0406 335.838 72.9949 336.142 70.1523L341.32 70.6599C341.117 73.401 340.914 76.2437 340.914 79.2893C340.914 87.0051 341.827 94.1117 343.35 100C344.873 105.787 347.005 110.355 349.239 112.69C350.66 114.315 351.98 114.822 352.995 114.822C354.01 114.822 355.33 114.315 356.751 112.69C358.173 111.066 359.695 108.528 360.914 105.381C363.452 98.8833 365.076 89.6447 365.076 79.2893C365.076 76.3452 364.975 73.401 364.67 70.6599L369.848 70.1523C370.152 73.0964 370.254 76.1421 370.254 79.1878C370.254 87.3096 369.34 94.8223 367.614 101.218C365.99 107.614 363.655 112.69 360.609 116.142C358.579 118.376 355.939 120 352.995 120C350.051 120 347.411 118.477 345.381 116.142Z" fill="currentColor"/>
  <path d="M301.523 120C294.822 120 288.426 117.056 283.553 112.386C278.68 107.716 275.431 101.218 275.431 93.9086C275.431 79.4924 287.107 67.8173 301.523 67.8173C313.706 67.8173 323.858 76.1421 326.802 87.4112L327.614 90.6599H280.914C280.711 91.6751 280.609 92.7919 280.609 93.9086C280.609 99.5939 283.147 104.772 287.107 108.629C291.066 112.487 296.345 114.822 301.421 114.822H327.513V120H301.523V120ZM282.437 85.4822H320.609C317.259 78.1726 309.949 73.0964 301.523 73.0964C292.995 73.0964 285.685 78.1726 282.437 85.4822Z" fill="currentColor"/>
  <path d="M242.437 120C228.02 120 216.345 108.325 216.345 93.9086C216.345 79.4924 228.02 67.8173 242.437 67.8173H262.03V0H267.208V73.0965H242.437C230.863 73.0965 221.624 82.4366 221.523 94.0102C221.523 105.584 230.863 114.822 242.437 114.924H267.208V120.102H242.437V120Z" fill="currentColor"/>
  <path d="M157.36 120V114.822H182.132C193.706 114.822 202.944 105.482 203.046 93.9086C203.046 82.335 193.706 73.0965 182.132 72.9949H157.36V0H162.538V67.8173H182.132C196.548 67.8173 208.223 79.4924 208.223 93.9086C208.223 108.325 196.548 120 182.132 120H157.36Z" fill="currentColor"/>
  <path d="M107.005 94.0102C107.005 79.5939 118.68 68.0203 132.995 68.0203C137.767 68.0203 142.132 69.2386 145.99 71.4721L148.223 72.7919L145.685 77.1574L143.452 75.9391C140.406 74.1117 136.853 73.0965 132.995 73.0965C121.421 73.0965 112.081 82.4365 112.081 94.0102C112.081 105.584 121.421 114.924 132.995 114.924C136.853 114.924 140.406 113.909 143.452 112.081L145.685 110.761L148.223 115.127L145.99 116.447C142.132 118.68 137.665 119.898 132.995 119.898C118.68 120 107.005 108.325 107.005 94.0102Z" fill="currentColor"/>
  <path d="M93.8071 120V67.8173H98.8832V120H93.8071Z" fill="currentColor"/>
  <path d="M96.3452 55.3299C97.6908 55.3299 98.7817 54.2391 98.7817 52.8934C98.7817 51.5477 97.6908 50.4568 96.3452 50.4568C94.9995 50.4568 93.9086 51.5477 93.9086 52.8934C93.9086 54.2391 94.9995 55.3299 96.3452 55.3299Z" fill="currentColor"/>
  <path d="M92.8934 52.8934C92.8934 50.9645 94.4162 49.4416 96.3452 49.4416C98.2741 49.4416 99.797 50.9645 99.797 52.8934C99.797 54.8223 98.2741 56.3452 96.3452 56.3452C94.4162 56.3452 92.8934 54.8223 92.8934 52.8934ZM94.9239 52.8934C94.9239 53.7056 95.6345 54.4162 96.4467 54.4162C97.2589 54.4162 97.9695 53.7056 97.9695 52.8934C97.9695 52.0812 97.2589 51.3706 96.4467 51.3706C95.533 51.3706 94.9239 51.9797 94.9239 52.8934Z" fill="currentColor"/>
  <path d="M60.3046 120C60.3046 120 60.3046 88.3249 60.3046 83.1472V82.4365V70.4569V67.8173H65.4822V75.8376C70.0508 71.6751 76.2436 69.1371 82.9442 69.1371H85.5838V74.3147H82.9442C75.6345 74.3147 69.137 78.0711 65.4822 83.8579V120H60.3046V120Z" fill="currentColor"/>
  <path d="M26.0914 120C19.3909 120 12.9949 117.056 8.12183 112.386C3.24873 107.716 0 101.218 0 93.9086C0 79.4924 11.6751 67.8173 26.0914 67.8173C38.2741 67.8173 48.4264 76.1421 51.3706 87.4112L52.1827 90.6599H5.48223C5.27919 91.6751 5.17766 92.7919 5.17766 93.9086C5.17766 99.5939 7.71574 104.772 11.6751 108.629C15.6345 112.487 20.9137 114.822 25.9898 114.822H52.0812V120H26.0914V120ZM7.00508 85.4822H45.1777C41.9289 78.1726 34.6193 73.0964 26.0914 73.0964C17.5635 73.0964 10.2538 78.1726 7.00508 85.4822Z" fill="currentColor"/>
</svg>
