<svg width="210" height="119" viewBox="0 0 210 119" fill="none" xmlns="http://www.w3.org/2000/svg">
  <path fill="currentColor" d="M185.2 114.4C183.2 112.2 181.5 109.1 180.1 105.5C177.3 98.3 175.7 88.7 175.7 78C175.7 74.9 175.8 71.9 176.1 69.1L181.2 69.6C181 72.3 180.8 75.1 180.8 78.1C180.8 85.7 181.7 92.7 183.2 98.5C184.7 104.2 186.8 108.7 189 111C190.4 112.6 191.7 113.1 192.7 113.1C193.7 113.1 195 112.6 196.4 111C197.8 109.4 199.3 106.9 200.5 103.8C203 97.4 204.6 88.3 204.6 78.1C204.6 75.2 204.5 72.3 204.2 69.6L209.3 69.1C209.6 72 209.7 75 209.7 78C209.7 86 208.8 93.4 207.1 99.7C205.5 106 203.2 111 200.2 114.4C198.2 116.6 195.6 118.2 192.7 118.2C189.8 118.2 187.2 116.7 185.2 114.4Z"/>
  <path fill="currentColor" d="M142 118.2C135.4 118.2 129.1 115.3 124.3 110.7C119.5 106.1 116.3 99.7 116.3 92.5C116.3 78.3 127.8 66.8 142 66.8C154 66.8 164 75 166.9 86.1L167.7 89.3H121.7C121.5 90.3 121.4 91.4 121.4 92.5C121.4 98.1 123.9 103.2 127.8 107C131.7 110.8 136.9 113.1 141.9 113.1H167.6V118.2H142V118.2ZM123.2 84.2H160.8C157.5 77 150.3 72 142 72C133.6 72 126.4 77 123.2 84.2Z"/>
  <path fill="currentColor" d="M83.8 118.2C69.6 118.2 58.1 106.7 58.1 92.5C58.1 78.3 69.6 66.8 83.8 66.8H103.1V0H108.2V72H83.8C72.4 72 63.3 81.2 63.2 92.6C63.2 104 72.4 113.1 83.8 113.2H108.2V118.3H83.8V118.2Z"/>
  <path fill="currentColor" d="M0 118.2V113.1H24.4C35.8 113.1 44.9 103.9 45 92.5C45 81.1 35.8 72 24.4 71.9H0V0H5.10001V66.8H24.4C38.6 66.8 50.1 78.3 50.1 92.5C50.1 106.7 38.6 118.2 24.4 118.2H0Z"/>
</svg>
