
<svg width="214" height="120" viewBox="0 0 214 120" fill="none" xmlns="http://www.w3.org/2000/svg">
  <path d="M188.381 116.142C186.35 113.909 184.624 110.761 183.203 107.107C180.36 99.797 178.736 90.0508 178.736 79.1878C178.736 76.0406 178.838 72.9949 179.142 70.1523L184.32 70.6599C184.117 73.401 183.914 76.2437 183.914 79.2893C183.914 87.0051 184.827 94.1117 186.35 100C187.873 105.787 190.005 110.355 192.239 112.69C193.66 114.315 194.98 114.822 195.995 114.822C197.01 114.822 198.33 114.315 199.751 112.69C201.173 111.066 202.695 108.528 203.914 105.381C206.452 98.8833 208.076 89.6447 208.076 79.2893C208.076 76.3452 207.975 73.401 207.67 70.6599L212.848 70.1523C213.152 73.0964 213.254 76.1421 213.254 79.1878C213.254 87.3096 212.34 94.8223 210.614 101.218C208.99 107.614 206.655 112.69 203.609 116.142C201.579 118.376 198.939 120 195.995 120C193.051 120 190.411 118.477 188.381 116.142Z" fill="currentColor"/>
  <path d="M144.523 120C137.822 120 131.426 117.056 126.553 112.386C121.68 107.716 118.431 101.218 118.431 93.9086C118.431 79.4924 130.107 67.8173 144.523 67.8173C156.706 67.8173 166.858 76.1421 169.802 87.4112L170.614 90.6599H123.914C123.711 91.6751 123.609 92.7919 123.609 93.9086C123.609 99.5939 126.147 104.772 130.107 108.629C134.066 112.487 139.345 114.822 144.421 114.822H170.513V120H144.523V120ZM125.437 85.4822H163.609C160.259 78.1726 152.949 73.0964 144.523 73.0964C135.995 73.0964 128.685 78.1726 125.437 85.4822Z" fill="currentColor"/>
  <path d="M85.4365 120C71.0203 120 59.3452 108.325 59.3452 93.9086C59.3452 79.4924 71.0203 67.8173 85.4365 67.8173H105.03V0H110.208V73.0965H85.4365C73.8629 73.0965 64.6243 82.4366 64.5228 94.0102C64.5228 105.584 73.8629 114.822 85.4365 114.924H110.208V120.102H85.4365V120Z" fill="currentColor"/>
  <path d="M0.360413 120V114.822H25.132C36.7056 114.822 45.9442 105.482 46.0457 93.9086C46.0457 82.335 36.7056 73.0965 25.132 72.9949H0.360413V0H5.53808V67.8173H25.132C39.5482 67.8173 51.2234 79.4924 51.2234 93.9086C51.2234 108.325 39.5482 120 25.132 120H0.360413Z" fill="currentColor"/>
</svg>
