<svg aria-label="Eric Bright" width="394px" height="188px" viewBox="0 0 394 188" version="1.1">
  <g fill="currentColor" fill-rule="evenodd">
    <polygon points="373.5002 118.2215 373.5002 31.5075 358.7222 31.5075 358.7222 26.3675 373.5002 26.3675 373.5002 0.0255 378.6392 0.0255 378.6392 26.3675 393.4202 26.3675 393.4202 31.5075 378.6392 31.5075 378.6392 118.2215 378.6402 118.2215"></polygon>
    <path d="M357.585,118.2215 L357.585,92.5475 C357.563,81.1935 348.378,72.0085 337.024,71.9875 C325.671,72.0085 316.483,81.1935 316.464,92.5475 L316.464,118.2215 L311.325,118.2215 L311.325,0.0265 L316.464,0.0265 L316.464,77.1255 C321.153,70.8855 328.616,66.8495 337.024,66.8475 C351.22,66.8495 362.724,78.3515 362.724,92.5475 L362.726,118.2215 L357.585,118.2215 Z"></path>
    <path d="M277.8358,187.328 C263.6408,187.326 252.1368,175.823 252.1348,161.628 L257.2768,161.628 C257.2968,172.982 266.4818,182.168 277.8358,182.187 C283.5218,182.179 288.2458,179.922 291.6598,176.24 C295.0648,172.555 297.1108,167.407 297.1108,161.628 L297.1108,145.78 L297.1108,117.938 L277.8358,117.938 C263.6408,117.936 252.1368,106.432 252.1348,92.238 C252.1368,78.043 263.6408,66.539 277.8358,66.538 L302.0918,66.538 L302.0918,71.676 L277.8358,71.678 C266.4818,71.698 257.2968,80.883 257.2768,92.238 C257.2968,103.592 266.4818,112.777 277.8358,112.798 L302.2498,112.798 L302.2498,145.78 L302.2498,161.628 C302.2518,168.624 299.7638,175.042 295.4378,179.728 C291.1308,184.408 284.9468,187.328 277.8748,187.328 L277.8358,187.328 Z"></path>
    <polygon points="240.3933 118.2188 240.4483 66.8438 245.4443 66.8488 245.3893 118.2238"></polygon>
    <path d="M239.5497,52.0651 C239.5537,50.1811 241.0787,48.6561 242.9657,48.6561 C244.8507,48.6601 246.3747,50.1881 246.3727,52.0721 C246.3707,53.9571 244.8437,55.4821 242.9587,55.4801 C241.0717,55.4781 239.5497,53.9501 239.5497,52.0651"></path>
    <path d="M208.4428,118.2215 L208.4428,81.9135 L208.4428,81.2015 L208.4428,69.4165 L208.4438,66.8465 L213.5838,66.8465 L213.5838,74.7815 C218.1328,70.6525 224.1728,68.1315 230.8078,68.1315 L233.3798,68.1315 L233.3798,73.2715 L230.8078,73.2715 C223.5728,73.2715 217.2538,76.9995 213.5838,82.6535 L213.5838,118.2215 L208.4428,118.2215 Z"></path>
    <path d="M150.0251,118.2215 L150.0251,113.0815 L174.4401,113.0815 C185.7941,113.0615 194.9801,103.8765 195.0011,92.5225 C194.9801,81.1675 185.7941,71.9815 174.4401,71.9605 L150.0251,71.9605 L150.0251,-0.0005 L155.1641,-0.0005 L155.1641,66.8205 L174.4401,66.8205 C188.6341,66.8235 200.1381,78.3265 200.1391,92.5225 C200.1381,106.7165 188.6341,118.2205 174.4401,118.2215 L150.0251,118.2215 Z"></path>
    <path class="logo-letter-alt" d="M128.0461,66.9656 C132.7051,66.9656 137.0911,68.2146 140.8601,70.3936 L143.0211,71.6446 L140.5211,75.9676 L138.3591,74.7186 C135.3241,72.9646 131.8111,71.9616 128.0461,71.9616 C116.6531,71.9806 107.4341,81.1986 107.4141,92.5936 C107.4341,103.9876 116.6531,113.2056 128.0461,113.2266 C131.8131,113.2246 135.3251,112.2226 138.3611,110.4666 L140.5231,109.2176 L143.0251,113.5406 L140.8621,114.7916 C137.0941,116.9716 132.7061,118.2216 128.0461,118.2216 C113.8921,118.2196 102.4201,106.7486 102.4191,92.5936 C102.4201,78.4396 113.8921,66.9676 128.0461,66.9656 Z"></path>
    <polygon class="logo-letter-alt" points="90.368 118.2188 90.423 66.8438 95.419 66.8488 95.364 118.2238"></polygon>
    <path class="logo-letter-alt" d="M95.3841,52.0718 C95.3831,53.4248 94.2861,54.5188 92.9341,54.5178 C91.5831,54.5158 90.4881,53.4188 90.4901,52.0668 C90.4911,50.7148 91.5881,49.6198 92.9391,49.6218 C94.2911,49.6228 95.3851,50.7198 95.3841,52.0718"></path>
    <path class="logo-letter-alt" d="M58.4175,118.2215 L58.4175,81.9135 L58.4175,81.2015 L58.4175,69.4165 L58.4185,66.8465 L63.5585,66.8465 L63.5585,74.7815 C68.1075,70.6525 74.1475,68.1315 80.7825,68.1315 L83.3545,68.1315 L83.3545,73.2715 L80.7825,73.2715 C73.5475,73.2715 67.2295,76.9995 63.5585,82.6535 L63.5585,118.2215 L58.4175,118.2215 Z"></path>
    <path class="logo-letter-alt" d="M6.9175,84.1698 L44.4935,84.1688 C41.2915,76.9788 34.0805,71.9578 25.7005,71.9618 C17.3205,71.9768 10.1225,76.9838 6.9175,84.1698 Z M4.0165,89.3108 L4.0165,89.3088 L4.0155,89.3088 L4.0165,89.3108 Z M25.7005,118.2218 C19.1435,118.2118 12.7905,115.3268 8.0135,110.7278 C3.2445,106.1268 0.0035,99.7018 0.0005,92.5218 C0.0025,78.3268 11.5055,66.8238 25.7005,66.8208 C37.6755,66.8268 47.7365,75.0058 50.5905,86.0988 L51.4175,89.3088 L5.3945,89.3088 C5.2285,90.3558 5.1415,91.4288 5.1395,92.5218 C5.1365,98.1168 7.6785,103.2568 11.5825,107.0278 C15.4815,110.7988 20.6925,113.0928 25.7005,113.0828 L51.4005,113.0828 L51.4005,118.2218 L25.7005,118.2218 Z"></path>
  </g>
</svg>
